<svg xmlns="http://www.w3.org/2000/svg" width="384" height="144" viewBox="0 0 384 144" shape-rendering="crispEdges" role="img" aria-label="Kwipu - ASK YOUR NOTES · FULLY LOCAL" xmlns:c2pa="http://c2pa.org/manifest"><metadata><c2pa:manifest>AAAWgmp1bWIAAAAeanVtZGMycGEAEQAQgAAAqgA4m3EDYzJwYQAAABZcanVtYgAAAEdqdW1kYzJtYQARABCAAACqADibcQN1cm46YzJwYToxNjJhMzljNy05MWJhLTRmODAtYTdjMi0wN2NhNzllNTAwMzEAAAADl2p1bWIAAAApanVtZGMyYXMAEQAQgAAAqgA4m3EDYzJwYS5hc3NlcnRpb25zAAAAALxqdW1iAAAARGp1bWRjYm9yABEAEIAAAKoAOJtxE2MycGEuaW5ncmVkaWVudC52MwAAAAAYYzJzaHRfZrLfxsEqX4Sn/4Vrd3oAAABwY2JvcqNpZGM6Zm9ybWF0bWltYWdlL3N2Zyt4bWxqaW5zdGFuY2VJRHgseG1wOmlpZDo0NDYzODU5ZS0xYTIzLTQzNjQtODhhNy02NjZlOGJmNDhjZDNscmVsYXRpb25zaGlwaHBhcmVudE9mAAAB4mp1bWIAAABBanVtZGNib3IAEQAQgAAAqgA4m3ETYzJwYS5hY3Rpb25zLnYyAAAAABhjMnNoL7b4sJfsZ5qVDXHlgnyDXAAAAZljYm9yomdhY3Rpb25zgqJmYWN0aW9ua2MycGEub3BlbmVkanBhcmFtZXRlcnOha2luZ3JlZGllbnRzgaJjdXJseC1zZWxmI2p1bWJmPWMycGEuYXNzZXJ0aW9ucy9jMnBhLmluZ3JlZGllbnQudjNkaGFzaFggxIyVuoxgM1fY/8QgDUB1Vu4WHO0BF1RSiQU9/uEUnWKkZmFjdGlvbngdY29tLmFudGhyb3BpYy5jbGF1ZGUucHJvdmlkZWRqcGFyYW1ldGVyc6F4H2NvbS5hbnRocm9waWMub3JpZ2luLWNvbmZpZGVuY2VndW5rbm93bmtkZXNjcmlwdGlvbnhmQ2xhdWRlIHByb3ZpZGVkIHRoaXMgZmlsZSBhdCB0aGUgcmVxdWVzdCBvZiBhIHVzZXIgYW5kIG1heSBoYXZlIGNyZWF0ZWQgb3IgbW9kaWZpZWQgdGhlIGZpbGUgY29udGVudHMubXNvZnR3YXJlQWdlbnShZG5hbWVmQ2xhdWRlcmFsbEFjdGlvbnNJbmNsdWRlZPUAAADIanVtYgAAAEBqdW1kY2JvcgARABCAAACqADibcRNjMnBhLmhhc2guZGF0YQAAAAAYYzJzaCOsKvYOUaMwX9t1ocj07vMAAACAY2JvcqVjYWxnZnNoYTI1NmNwYWRNAAAAAAAAAAAAAAAAAGRoYXNoWCCcwv8Xk+xfpx49Q07vVWA3BUkvKKlzv5AM2B0bvb2/7WRuYW1lbmp1bWJmIG1hbmlmZXN0amV4Y2x1c2lvbnOBomVzdGFydBjxZmxlbmd0aBkeBAAAAj5qdW1iAAAAJ2p1bWRjMmNsABEAEIAAAKoAOJtxA2MycGEuY2xhaW0udjIAAAACD2Nib3KlY2FsZ2ZzaGEyNTZpc2lnbmF0dXJleE1zZWxmI2p1bWJmPS9jMnBhL3VybjpjMnBhOjE2MmEzOWM3LTkxYmEtNGY4MC1hN2MyLTA3Y2E3OWU1MDAzMS9jMnBhLnNpZ25hdHVyZWppbnN0YW5jZUlEeCx4bXA6aWlkOmRiNTRlMTQyLTVkZGItNGFlNS1hZGE4LTBjODRlYjNiNDI1MnJjcmVhdGVkX2Fzc2VydGlvbnODomN1cmx4LXNlbGYjanVtYmY9YzJwYS5hc3NlcnRpb25zL2MycGEuaW5ncmVkaWVudC52M2RoYXNoWCDEjJW6jGAzV9j/xCANQHVW7hYc7QEXVFKJBT3+4RSdYqJjdXJseCpzZWxmI2p1bWJmPWMycGEuYXNzZXJ0aW9ucy9jMnBhLmFjdGlvbnMudjJkaGFzaFggtAthT/B7SLhBpeuTeiKyqhzLr2jpV2CYIMIkYkITrUOiY3VybHgpc2VsZiNqdW1iZj1jMnBhLmFzc2VydGlvbnMvYzJwYS5oYXNoLmRhdGFkaGFzaFggfg4PYx/D2+lO/rgqPjD7rkTAtz2/mbKCD9OQkpxcPwl0Y2xhaW1fZ2VuZXJhdG9yX2luZm+jZG5hbWVvQW50aHJvcGljIEZpbGVzZ3ZlcnNpb25lMS4wLjBrc3BlY1ZlcnNpb25lMi40LjAAABA4anVtYgAAAChqdW1kYzJjcwARABCAAACqADibcQNjMnBhLnNpZ25hdHVyZQAAABAIY2JvctKEWQISogEmGCFZAgowggIGMIIBjaADAgECAhRA5aAK7sI50L64g/oGQgU9Z1UTADAKBggqhkjOPQQDAzBJMRcwFQYDVQQKEw5BbnRocm9waWMsIFBCQzEuMCwGA1UEAxMlQW50aHJvcGljIENvbnRlbnQgQ3JlZGVudGlhbHMgUm9vdCBDQTAeFw0yNjA4MDcxODQzNTZaFw0yODA4MDYxOTQzNTZaMEQxFzAVBgNVBAoTDkFudGhyb3BpYywgUEJDMSkwJwYDVQQDEyBBbnRocm9waWMgQ2xhdWRlIENvbnRlbnQgU2lnbmluZzBZMBMGByqGSM49AgEGCCqGSM49AwEHA0IABJh6CmvLUBgFFNU0vUKlOVtE6djd17L5SuwX0LemFisBM3dkd/3cyjxFA3Qo5S46fX0/ihY0VZ7mfb9KF703t5OjWDBWMA4GA1UdDwEB/wQEAwIHgDAVBgNVHSUEDjAMBgorBgEEAYPoXgIBMAwGA1UdEwEB/wQCMAAwHwYDVR0jBBgwFoAUzlHiBIFOZFsj+OPEz5o+nMHXXMIwCgYIKoZIzj0EAwMDZwAwZAIwMXMdFJ4BetLLVY7ORuE9noqbbAZOZn/aArXyTwFAZfKrPzxF2vPoJNf1+UCdg1XGAjBwX1zd9WGqYkqmL5SFqw1QySjr1zJfpJM9+1rdDwSPLMOPOjKuiXjoU/pUUeG9RwmhY3BhZFkNngAAAAAAAAAAAAAAAAAAAAAAAAAAAAAAAAAAAAAAAAAAAAAAAAAAAAAAAAAAAAAAAAAAAAAAAAAAAAAAAAAAAAAAAAAAAAAAAAAAAAAAAAAAAAAAAAAAAAAAAAAAAAAAAAAAAAAAAAAAAAAAAAAAAAAAAAAAAAAAAAAAAAAAAAAAAAAAAAAAAAAAAAAAAAAAAAAAAAAAAAAAAAAAAAAAAAAAAAAAAAAAAAAAAAAAAAAAAAAAAAAAAAAAAAAAAAAAAAAAAAAAAAAAAAAAAAAAAAAAAAAAAAAAAAAAAAAAAAAAAAAAAAAAAAAAAAAAAAAAAAAAAAAAAAAAAAAAAAAAAAAAAAAAAAAAAAAAAAAAAAAAAAAAAAAAAAAAAAAAAAAAAAAAAAAAAAAAAAAAAAAAAAAAAAAAAAAAAAAAAAAAAAAAAAAAAAAAAAAAAAAAAAAAAAAAAAAAAAAAAAAAAAAAAAAAAAAAAAAAAAAAAAAAAAAAAAAAAAAAAAAAAAAAAAAAAAAAAAAAAAAAAAAAAAAAAAAAAAAAAAAAAAAAAAAAAAAAAAAAAAAAAAAAAAAAAAAAAAAAAAAAAAAAAAAAAAAAAAAAAAAAAAAAAAAAAAAAAAAAAAAAAAAAAAAAAAAAAAAAAAAAAAAAAAAAAAAAAAAAAAAAAAAAAAAAAAAAAAAAAAAAAAAAAAAAAAAAAAAAAAAAAAAAAAAAAAAAAAAAAAAAAAAAAAAAAAAAAAAAAAAAAAAAAAAAAAAAAAAAAAAAAAAAAAAAAAAAAAAAAAAAAAAAAAAAAAAAAAAAAAAAAAAAAAAAAAAAAAAAAAAAAAAAAAAAAAAAAAAAAAAAAAAAAAAAAAAAAAAAAAAAAAAAAAAAAAAAAAAAAAAAAAAAAAAAAAAAAAAAAAAAAAAAAAAAAAAAAAAAAAAAAAAAAAAAAAAAAAAAAAAAAAAAAAAAAAAAAAAAAAAAAAAAAAAAAAAAAAAAAAAAAAAAAAAAAAAAAAAAAAAAAAAAAAAAAAAAAAAAAAAAAAAAAAAAAAAAAAAAAAAAAAAAAAAAAAAAAAAAAAAAAAAAAAAAAAAAAAAAAAAAAAAAAAAAAAAAAAAAAAAAAAAAAAAAAAAAAAAAAAAAAAAAAAAAAAAAAAAAAAAAAAAAAAAAAAAAAAAAAAAAAAAAAAAAAAAAAAAAAAAAAAAAAAAAAAAAAAAAAAAAAAAAAAAAAAAAAAAAAAAAAAAAAAAAAAAAAAAAAAAAAAAAAAAAAAAAAAAAAAAAAAAAAAAAAAAAAAAAAAAAAAAAAAAAAAAAAAAAAAAAAAAAAAAAAAAAAAAAAAAAAAAAAAAAAAAAAAAAAAAAAAAAAAAAAAAAAAAAAAAAAAAAAAAAAAAAAAAAAAAAAAAAAAAAAAAAAAAAAAAAAAAAAAAAAAAAAAAAAAAAAAAAAAAAAAAAAAAAAAAAAAAAAAAAAAAAAAAAAAAAAAAAAAAAAAAAAAAAAAAAAAAAAAAAAAAAAAAAAAAAAAAAAAAAAAAAAAAAAAAAAAAAAAAAAAAAAAAAAAAAAAAAAAAAAAAAAAAAAAAAAAAAAAAAAAAAAAAAAAAAAAAAAAAAAAAAAAAAAAAAAAAAAAAAAAAAAAAAAAAAAAAAAAAAAAAAAAAAAAAAAAAAAAAAAAAAAAAAAAAAAAAAAAAAAAAAAAAAAAAAAAAAAAAAAAAAAAAAAAAAAAAAAAAAAAAAAAAAAAAAAAAAAAAAAAAAAAAAAAAAAAAAAAAAAAAAAAAAAAAAAAAAAAAAAAAAAAAAAAAAAAAAAAAAAAAAAAAAAAAAAAAAAAAAAAAAAAAAAAAAAAAAAAAAAAAAAAAAAAAAAAAAAAAAAAAAAAAAAAAAAAAAAAAAAAAAAAAAAAAAAAAAAAAAAAAAAAAAAAAAAAAAAAAAAAAAAAAAAAAAAAAAAAAAAAAAAAAAAAAAAAAAAAAAAAAAAAAAAAAAAAAAAAAAAAAAAAAAAAAAAAAAAAAAAAAAAAAAAAAAAAAAAAAAAAAAAAAAAAAAAAAAAAAAAAAAAAAAAAAAAAAAAAAAAAAAAAAAAAAAAAAAAAAAAAAAAAAAAAAAAAAAAAAAAAAAAAAAAAAAAAAAAAAAAAAAAAAAAAAAAAAAAAAAAAAAAAAAAAAAAAAAAAAAAAAAAAAAAAAAAAAAAAAAAAAAAAAAAAAAAAAAAAAAAAAAAAAAAAAAAAAAAAAAAAAAAAAAAAAAAAAAAAAAAAAAAAAAAAAAAAAAAAAAAAAAAAAAAAAAAAAAAAAAAAAAAAAAAAAAAAAAAAAAAAAAAAAAAAAAAAAAAAAAAAAAAAAAAAAAAAAAAAAAAAAAAAAAAAAAAAAAAAAAAAAAAAAAAAAAAAAAAAAAAAAAAAAAAAAAAAAAAAAAAAAAAAAAAAAAAAAAAAAAAAAAAAAAAAAAAAAAAAAAAAAAAAAAAAAAAAAAAAAAAAAAAAAAAAAAAAAAAAAAAAAAAAAAAAAAAAAAAAAAAAAAAAAAAAAAAAAAAAAAAAAAAAAAAAAAAAAAAAAAAAAAAAAAAAAAAAAAAAAAAAAAAAAAAAAAAAAAAAAAAAAAAAAAAAAAAAAAAAAAAAAAAAAAAAAAAAAAAAAAAAAAAAAAAAAAAAAAAAAAAAAAAAAAAAAAAAAAAAAAAAAAAAAAAAAAAAAAAAAAAAAAAAAAAAAAAAAAAAAAAAAAAAAAAAAAAAAAAAAAAAAAAAAAAAAAAAAAAAAAAAAAAAAAAAAAAAAAAAAAAAAAAAAAAAAAAAAAAAAAAAAAAAAAAAAAAAAAAAAAAAAAAAAAAAAAAAAAAAAAAAAAAAAAAAAAAAAAAAAAAAAAAAAAAAAAAAAAAAAAAAAAAAAAAAAAAAAAAAAAAAAAAAAAAAAAAAAAAAAAAAAAAAAAAAAAAAAAAAAAAAAAAAAAAAAAAAAAAAAAAAAAAAAAAAAAAAAAAAAAAAAAAAAAAAAAAAAAAAAAAAAAAAAAAAAAAAAAAAAAAAAAAAAAAAAAAAAAAAAAAAAAAAAAAAAAAAAAAAAAAAAAAAAAAAAAAAAAAAAAAAAAAAAAAAAAAAAAAAAAAAAAAAAAAAAAAAAAAAAAAAAAAAAAAAAAAAAAAAAAAAAAAAAAAAAAAAAAAAAAAAAAAAAAAAAAAAAAAAAAAAAAAAAAAAAAAAAAAAAAAAAAAAAAAAAAAAAAAAAAAAAAAAAAAAAAAAAAAAAAAAAAAAAAAAAAAAAAAAAAAAAAAAAAAAAAAAAAAAAAAAAAAAAAAAAAAAAAAAAAAAAAAAAAAAAAAAAAAAAAAAAAAAAAAAAAAAAAAAAAAAAAAAAAAAAAAAAAAAAAAAAAAAAAAAAAAAAAAAAAAAAAAAAAAAAAAAAAAAAAAAAAAAAAAAAAAAAAAAAAAAAAAAAAAAAAAAAAAAAAAAAAAAAAAAAAAAAAAAAAAAAAAAAAAAAAAAAAAAAAAAAAAAAAAAAAAAAAAAAAAAAAAAAAAAAAAAAAAAAAAAAAAAAAAAAAAAAAAAAAAAAAAAAAAAAAAAAAAAAAAAAAAAAAAAAAAAAAAAAAAAAAAAAAAAAAAAAAAAAAAAAAAAAAAAAAAAAAAAAAAAAAAAAAAAAAAAAAAAAAAAAAAAAAAAAAAAAAAAAAAAAAAAAAAAAAAAAAAAAAAAAAAAAAAAAAAAAAAAAAAAAAAAAAAAAAAAAAAAAAAAAAAAAAAAAAAAAAAAAAAAAAAAAAAAAAAAAAAAAAAAAAAAAAAAAAAAAAAAAAAAAAAAAAAAAAAAAAAAAAAAAAAAAAAAAAAAAAAAAAAAAAAAAAAAAAAAAAAAAAAAAAAAAAAAAAAAAAAAAAAAAAAAAAAAAAAAAAAAAAAAAAAAAAAAAAAAAAAAAAAAAAAAAAAAAAAAAAAAAAAAAAAAAAAAAAAAAAAAAAAAAAAAAAAAAAAAAAAAAAAAAAAAAAAAAAAAAAAAAAAAAAAAAAAAAAAAAAAAAAAAAAAAAAAAAAAAAAAAAAAAAAAAAAAAAAAAAAAAAAAAAAAAAAAAAAAAAAAAAAAAAAAAAAAAAAAAAAAAAAAAAAAAAAAAAAAAAAAAAAAAAAAAAAAAAAAAAAAAAAAAAAAAAAAAAAAAAAAAAAAAAAAAAAAAAAAAAAAAAAAAAAAAAAAAAAAAAAAAAAAAAAAAAAAAAAAAAAAAAAAAAAAAAAAAAAAAAAAAAAAAAAAAAAAAAAAAAAAAAAAAAAAAAAAAAAAAAAAAAAAAAAAAAAAAAAAAAAAAAAAAAAAAAAAAAAAAAAAAAAAAAAAAAAAAAAAAAAAAAAAAAAAAAAAAAAAAAAAAAAAAAAAAAAAAAAAAAAAAAAAAAAAAAAAAAAAAAAAAAAAAAAAAAAAAAAAAAAAAAAAAAAAAAAAAAAAAAAAAAAAAAAAAAAAAAAAAAAAAAAAAAAAAAAAAAAAAAAAAAAAAAAAAAAAAAAAAAAAAAAAAAAAAAAAAAAAAAAAAAAAAAAAAAAAAAAAAAAAAAAAAAAAAAAAAAAAAAAAAAAAAAAAAAAAAAAAAAAAAAAAAAAAAAAAAAAAAAAAAAAAAAAAAAAAAAAAAAAAAAAAAAAAAAAAAAAAAAAAAAAAAAAAAAAAAAAAAAAAAAAAAAAAAAAAAAAAAAAAAAAAAAAAAAAAAAAAAAAAPZYQKeDHnk8efv1HjWiAuqkNAPWfC7YnwuqbE2xMVwI+ALHW0zXmGOnuI8D3T/9tI1532kdjvW4LYtBhNbhU8ADgiE=</c2pa:manifest></metadata>
  <rect x="8" y="8" width="8" height="8" fill="#5b6470"/>
  <rect x="16" y="8" width="8" height="8" fill="#5b6470"/>
  <rect x="16" y="16" width="8" height="8" fill="#5b6470"/>
  <rect x="16" y="24" width="8" height="8" fill="#5b6470"/>
  <rect x="16" y="32" width="8" height="8" fill="#5b6470"/>
  <rect x="16" y="40" width="8" height="8" fill="#2dd4bf"/>
  <rect x="16" y="48" width="8" height="8" fill="#5b6470"/>
  <rect x="16" y="56" width="8" height="8" fill="#5b6470"/>
  <rect x="16" y="64" width="8" height="8" fill="#5b6470"/>
  <rect x="16" y="72" width="8" height="8" fill="#f6a623"/>
  <rect x="16" y="80" width="8" height="8" fill="#5b6470"/>
  <rect x="16" y="88" width="8" height="8" fill="#5b6470"/>
  <rect x="24" y="8" width="8" height="8" fill="#5b6470"/>
  <rect x="24" y="40" width="8" height="8" fill="#2dd4bf"/>
  <rect x="24" y="72" width="8" height="8" fill="#f6a623"/>
  <rect x="32" y="8" width="8" height="8" fill="#5b6470"/>
  <rect x="40" y="8" width="8" height="8" fill="#5b6470"/>
  <rect x="40" y="16" width="8" height="8" fill="#5b6470"/>
  <rect x="40" y="24" width="8" height="8" fill="#5b6470"/>
  <rect x="40" y="32" width="8" height="8" fill="#f6a623"/>
  <rect x="40" y="40" width="8" height="8" fill="#5b6470"/>
  <rect x="40" y="48" width="8" height="8" fill="#5b6470"/>
  <rect x="40" y="56" width="8" height="8" fill="#5b6470"/>
  <rect x="40" y="64" width="8" height="8" fill="#2dd4bf"/>
  <rect x="40" y="72" width="8" height="8" fill="#5b6470"/>
  <rect x="40" y="80" width="8" height="8" fill="#5b6470"/>
  <rect x="40" y="88" width="8" height="8" fill="#5b6470"/>
  <rect x="40" y="96" width="8" height="8" fill="#f6a623"/>
  <rect x="40" y="104" width="8" height="8" fill="#5b6470"/>
  <rect x="40" y="112" width="8" height="8" fill="#5b6470"/>
  <rect x="48" y="8" width="8" height="8" fill="#5b6470"/>
  <rect x="48" y="32" width="8" height="8" fill="#f6a623"/>
  <rect x="48" y="64" width="8" height="8" fill="#2dd4bf"/>
  <rect x="48" y="96" width="8" height="8" fill="#f6a623"/>
  <rect x="56" y="8" width="8" height="8" fill="#5b6470"/>
  <rect x="64" y="8" width="8" height="8" fill="#5b6470"/>
  <rect x="64" y="16" width="8" height="8" fill="#5b6470"/>
  <rect x="64" y="24" width="8" height="8" fill="#5b6470"/>
  <rect x="64" y="32" width="8" height="8" fill="#5b6470"/>
  <rect x="64" y="40" width="8" height="8" fill="#2dd4bf"/>
  <rect x="64" y="48" width="8" height="8" fill="#5b6470"/>
  <rect x="64" y="56" width="8" height="8" fill="#5b6470"/>
  <rect x="64" y="64" width="8" height="8" fill="#5b6470"/>
  <rect x="72" y="8" width="8" height="8" fill="#5b6470"/>
  <rect x="72" y="40" width="8" height="8" fill="#2dd4bf"/>
  <rect x="80" y="8" width="8" height="8" fill="#5b6470"/>
  <rect x="88" y="8" width="8" height="8" fill="#5b6470"/>
  <rect x="88" y="16" width="8" height="8" fill="#5b6470"/>
  <rect x="88" y="24" width="8" height="8" fill="#5b6470"/>
  <rect x="88" y="32" width="8" height="8" fill="#2dd4bf"/>
  <rect x="88" y="40" width="8" height="8" fill="#5b6470"/>
  <rect x="88" y="48" width="8" height="8" fill="#5b6470"/>
  <rect x="88" y="56" width="8" height="8" fill="#f6a623"/>
  <rect x="88" y="64" width="8" height="8" fill="#5b6470"/>
  <rect x="88" y="72" width="8" height="8" fill="#5b6470"/>
  <rect x="88" y="80" width="8" height="8" fill="#2dd4bf"/>
  <rect x="88" y="88" width="8" height="8" fill="#5b6470"/>
  <rect x="88" y="96" width="8" height="8" fill="#5b6470"/>
  <rect x="88" y="104" width="8" height="8" fill="#f6a623"/>
  <rect x="88" y="112" width="8" height="8" fill="#5b6470"/>
  <rect x="88" y="120" width="8" height="8" fill="#5b6470"/>
  <rect x="96" y="8" width="8" height="8" fill="#5b6470"/>
  <rect x="96" y="32" width="8" height="8" fill="#2dd4bf"/>
  <rect x="96" y="56" width="8" height="8" fill="#f6a623"/>
  <rect x="96" y="80" width="8" height="8" fill="#2dd4bf"/>
  <rect x="96" y="104" width="8" height="8" fill="#f6a623"/>
  <rect x="104" y="8" width="8" height="8" fill="#5b6470"/>
  <rect x="112" y="8" width="8" height="8" fill="#5b6470"/>
  <rect x="112" y="16" width="8" height="8" fill="#5b6470"/>
  <rect x="112" y="24" width="8" height="8" fill="#5b6470"/>
  <rect x="112" y="32" width="8" height="8" fill="#5b6470"/>
  <rect x="112" y="40" width="8" height="8" fill="#f6a623"/>
  <rect x="112" y="48" width="8" height="8" fill="#5b6470"/>
  <rect x="112" y="56" width="8" height="8" fill="#5b6470"/>
  <rect x="112" y="64" width="8" height="8" fill="#5b6470"/>
  <rect x="112" y="72" width="8" height="8" fill="#2dd4bf"/>
  <rect x="112" y="80" width="8" height="8" fill="#5b6470"/>
  <rect x="112" y="88" width="8" height="8" fill="#5b6470"/>
  <rect x="112" y="96" width="8" height="8" fill="#5b6470"/>
  <rect x="120" y="40" width="8" height="8" fill="#f6a623"/>
  <rect x="120" y="72" width="8" height="8" fill="#2dd4bf"/>
  <rect x="144" y="40" width="8" height="8" fill="#5b6470"/>
  <rect x="144" y="48" width="8" height="8" fill="#5b6470"/>
  <rect x="144" y="56" width="8" height="8" fill="#5b6470"/>
  <rect x="144" y="64" width="8" height="8" fill="#5b6470"/>
  <rect x="144" y="72" width="8" height="8" fill="#5b6470"/>
  <rect x="144" y="80" width="8" height="8" fill="#5b6470"/>
  <rect x="144" y="88" width="8" height="8" fill="#5b6470"/>
  <rect x="152" y="64" width="8" height="8" fill="#5b6470"/>
  <rect x="160" y="56" width="8" height="8" fill="#5b6470"/>
  <rect x="160" y="72" width="8" height="8" fill="#5b6470"/>
  <rect x="168" y="48" width="8" height="8" fill="#5b6470"/>
  <rect x="168" y="80" width="8" height="8" fill="#5b6470"/>
  <rect x="176" y="40" width="8" height="8" fill="#5b6470"/>
  <rect x="176" y="88" width="8" height="8" fill="#5b6470"/>
  <rect x="192" y="40" width="8" height="8" fill="#5b6470"/>
  <rect x="192" y="48" width="8" height="8" fill="#5b6470"/>
  <rect x="192" y="56" width="8" height="8" fill="#5b6470"/>
  <rect x="192" y="64" width="8" height="8" fill="#5b6470"/>
  <rect x="192" y="72" width="8" height="8" fill="#5b6470"/>
  <rect x="192" y="80" width="8" height="8" fill="#5b6470"/>
  <rect x="192" y="88" width="8" height="8" fill="#5b6470"/>
  <rect x="200" y="80" width="8" height="8" fill="#5b6470"/>
  <rect x="208" y="64" width="8" height="8" fill="#5b6470"/>
  <rect x="208" y="72" width="8" height="8" fill="#5b6470"/>
  <rect x="216" y="80" width="8" height="8" fill="#5b6470"/>
  <rect x="224" y="40" width="8" height="8" fill="#5b6470"/>
  <rect x="224" y="48" width="8" height="8" fill="#5b6470"/>
  <rect x="224" y="56" width="8" height="8" fill="#5b6470"/>
  <rect x="224" y="64" width="8" height="8" fill="#5b6470"/>
  <rect x="224" y="72" width="8" height="8" fill="#5b6470"/>
  <rect x="224" y="80" width="8" height="8" fill="#5b6470"/>
  <rect x="224" y="88" width="8" height="8" fill="#5b6470"/>
  <rect x="240" y="40" width="8" height="8" fill="#5b6470"/>
  <rect x="240" y="88" width="8" height="8" fill="#5b6470"/>
  <rect x="248" y="40" width="8" height="8" fill="#5b6470"/>
  <rect x="248" y="88" width="8" height="8" fill="#5b6470"/>
  <rect x="256" y="40" width="8" height="8" fill="#5b6470"/>
  <rect x="256" y="48" width="8" height="8" fill="#5b6470"/>
  <rect x="256" y="56" width="8" height="8" fill="#5b6470"/>
  <rect x="256" y="64" width="8" height="8" fill="#5b6470"/>
  <rect x="256" y="72" width="8" height="8" fill="#5b6470"/>
  <rect x="256" y="80" width="8" height="8" fill="#5b6470"/>
  <rect x="256" y="88" width="8" height="8" fill="#5b6470"/>
  <rect x="264" y="40" width="8" height="8" fill="#5b6470"/>
  <rect x="264" y="88" width="8" height="8" fill="#5b6470"/>
  <rect x="272" y="40" width="8" height="8" fill="#5b6470"/>
  <rect x="272" y="88" width="8" height="8" fill="#5b6470"/>
  <rect x="288" y="40" width="8" height="8" fill="#5b6470"/>
  <rect x="288" y="48" width="8" height="8" fill="#5b6470"/>
  <rect x="288" y="56" width="8" height="8" fill="#5b6470"/>
  <rect x="288" y="64" width="8" height="8" fill="#5b6470"/>
  <rect x="288" y="72" width="8" height="8" fill="#5b6470"/>
  <rect x="288" y="80" width="8" height="8" fill="#5b6470"/>
  <rect x="288" y="88" width="8" height="8" fill="#5b6470"/>
  <rect x="296" y="40" width="8" height="8" fill="#5b6470"/>
  <rect x="296" y="64" width="8" height="8" fill="#5b6470"/>
  <rect x="304" y="40" width="8" height="8" fill="#5b6470"/>
  <rect x="304" y="64" width="8" height="8" fill="#5b6470"/>
  <rect x="312" y="40" width="8" height="8" fill="#5b6470"/>
  <rect x="312" y="64" width="8" height="8" fill="#5b6470"/>
  <rect x="320" y="48" width="8" height="8" fill="#5b6470"/>
  <rect x="320" y="56" width="8" height="8" fill="#5b6470"/>
  <rect x="336" y="40" width="8" height="8" fill="#5b6470"/>
  <rect x="336" y="48" width="8" height="8" fill="#5b6470"/>
  <rect x="336" y="56" width="8" height="8" fill="#5b6470"/>
  <rect x="336" y="64" width="8" height="8" fill="#5b6470"/>
  <rect x="336" y="72" width="8" height="8" fill="#5b6470"/>
  <rect x="336" y="80" width="8" height="8" fill="#5b6470"/>
  <rect x="344" y="88" width="8" height="8" fill="#5b6470"/>
  <rect x="352" y="88" width="8" height="8" fill="#5b6470"/>
  <rect x="360" y="88" width="8" height="8" fill="#5b6470"/>
  <rect x="368" y="40" width="8" height="8" fill="#5b6470"/>
  <rect x="368" y="48" width="8" height="8" fill="#5b6470"/>
  <rect x="368" y="56" width="8" height="8" fill="#5b6470"/>
  <rect x="368" y="64" width="8" height="8" fill="#5b6470"/>
  <rect x="368" y="72" width="8" height="8" fill="#5b6470"/>
  <rect x="368" y="80" width="8" height="8" fill="#5b6470"/>
  <path shape-rendering="geometricPrecision" d="M148.1,110.0 L147.2,114.1 L149.1,114.1 L148.1,110.0 Z M146.9,108.2 L149.4,108.2 L152.1,118.2 L150.1,118.2 L149.5,115.8 L146.8,115.8 L146.2,118.2 L144.2,118.2 L146.9,108.2 Z M155.7,113.8 Q154.2,113.3 153.7,112.6 Q153.2,112.0 153.2,110.9 Q153.2,109.6 154.0,108.8 Q154.9,108.0 156.5,108.0 Q157.1,108.0 157.8,108.2 Q158.5,108.3 159.2,108.6 L159.2,110.6 Q158.6,110.1 157.9,109.9 Q157.3,109.6 156.6,109.6 Q155.9,109.6 155.5,109.9 Q155.1,110.2 155.1,110.8 Q155.1,111.2 155.4,111.5 Q155.7,111.7 156.6,112.1 L157.4,112.4 Q158.6,112.8 159.2,113.6 Q159.8,114.3 159.8,115.4 Q159.8,116.9 158.9,117.7 Q158.0,118.4 156.2,118.4 Q155.4,118.4 154.7,118.3 Q153.9,118.1 153.2,117.7 L153.2,115.7 Q154.0,116.2 154.8,116.5 Q155.5,116.8 156.2,116.8 Q157.0,116.8 157.4,116.5 Q157.8,116.1 157.8,115.5 Q157.8,115.1 157.5,114.7 Q157.2,114.4 156.7,114.2 L155.7,113.8 Z M161.4,108.2 L163.4,108.2 L163.4,112.2 L166.5,108.2 L168.7,108.2 L165.6,112.1 L168.9,118.2 L166.7,118.2 L164.3,113.7 L163.4,114.8 L163.4,118.2 L161.4,118.2 L161.4,108.2 Z M177.3,108.2 L179.4,108.2 L181.4,112.2 L183.3,108.2 L185.5,108.2 L182.4,114.3 L182.4,118.2 L180.4,118.2 L180.4,114.3 L177.3,108.2 Z M189.7,109.8 Q188.9,109.8 188.6,110.6 Q188.2,111.4 188.2,113.2 Q188.2,115.0 188.6,115.8 Q188.9,116.6 189.7,116.6 Q190.4,116.6 190.8,115.8 Q191.1,115.0 191.1,113.2 Q191.1,111.4 190.8,110.6 Q190.4,109.8 189.7,109.8 Z M186.1,113.2 Q186.1,110.6 187.0,109.3 Q187.9,108.0 189.7,108.0 Q191.4,108.0 192.3,109.3 Q193.2,110.6 193.2,113.2 Q193.2,115.8 192.3,117.1 Q191.4,118.4 189.7,118.4 Q187.9,118.4 187.0,117.1 Q186.1,115.8 186.1,113.2 Z M194.5,114.5 L194.5,108.2 L196.5,108.2 L196.5,115.0 Q196.5,115.8 196.9,116.2 Q197.3,116.6 198.0,116.6 Q198.7,116.6 199.0,116.2 Q199.4,115.8 199.4,115.0 L199.4,108.2 L201.4,108.2 L201.4,114.5 Q201.4,116.6 200.6,117.5 Q199.8,118.4 198.0,118.4 Q196.2,118.4 195.4,117.5 Q194.5,116.6 194.5,114.5 Z M207.6,113.5 Q207.9,113.6 208.1,113.8 Q208.3,114.0 208.6,114.6 L210.4,118.2 L208.3,118.2 L207.0,115.7 Q207.0,115.6 206.9,115.4 Q206.4,114.3 205.7,114.3 L205.0,114.3 L205.0,118.2 L203.0,118.2 L203.0,108.2 L205.9,108.2 Q207.8,108.2 208.7,108.9 Q209.5,109.6 209.5,111.1 Q209.5,112.1 209.0,112.8 Q208.5,113.4 207.6,113.5 Z M205.0,109.9 L205.0,112.6 L206.0,112.6 Q206.8,112.6 207.1,112.3 Q207.5,112.0 207.5,111.2 Q207.5,110.5 207.1,110.2 Q206.8,109.9 206.0,109.9 L205.0,109.9 Z M219.6,108.2 L221.7,108.2 L224.5,115.5 L224.5,108.2 L226.2,108.2 L226.2,118.2 L224.1,118.2 L221.3,110.9 L221.3,118.2 L219.6,118.2 L219.6,108.2 Z M231.2,109.8 Q230.4,109.8 230.1,110.6 Q229.7,111.4 229.7,113.2 Q229.7,115.0 230.1,115.8 Q230.4,116.6 231.2,116.6 Q232.0,116.6 232.3,115.8 Q232.7,115.0 232.7,113.2 Q232.7,111.4 232.3,110.6 Q232.0,109.8 231.2,109.8 Z M227.7,113.2 Q227.7,110.6 228.6,109.3 Q229.5,108.0 231.2,108.0 Q233.0,108.0 233.8,109.3 Q234.7,110.6 234.7,113.2 Q234.7,115.8 233.8,117.1 Q233.0,118.4 231.2,118.4 Q229.5,118.4 228.6,117.1 Q227.7,115.8 227.7,113.2 Z M240.5,118.2 L238.5,118.2 L238.5,109.9 L236.0,109.9 L236.0,108.2 L243.1,108.2 L243.1,109.9 L240.5,109.9 L240.5,118.2 Z M251.1,118.2 L244.8,118.2 L244.8,108.2 L251.1,108.2 L251.1,109.9 L246.8,109.9 L246.8,112.1 L250.7,112.1 L250.7,113.9 L246.8,113.9 L246.8,116.5 L251.1,116.5 L251.1,118.2 Z M255.4,113.8 Q253.9,113.3 253.4,112.6 Q252.8,112.0 252.8,110.9 Q252.8,109.6 253.7,108.8 Q254.6,108.0 256.1,108.0 Q256.8,108.0 257.5,108.2 Q258.2,108.3 258.9,108.6 L258.9,110.6 Q258.2,110.1 257.6,109.9 Q256.9,109.6 256.3,109.6 Q255.6,109.6 255.2,109.9 Q254.8,110.2 254.8,110.8 Q254.8,111.2 255.1,111.5 Q255.3,111.7 256.2,112.1 L257.1,112.4 Q258.3,112.8 258.9,113.6 Q259.4,114.3 259.4,115.4 Q259.4,116.9 258.5,117.7 Q257.6,118.4 255.8,118.4 Q255.1,118.4 254.3,118.3 Q253.6,118.1 252.9,117.7 L252.9,115.7 Q253.7,116.2 254.4,116.5 Q255.2,116.8 255.9,116.8 Q256.6,116.8 257.0,116.5 Q257.4,116.1 257.4,115.5 Q257.4,115.1 257.2,114.7 Q256.9,114.4 256.4,114.2 L255.4,113.8 Z M271.6,112.2 L273.8,112.2 L273.8,114.7 L271.6,114.7 L271.6,112.2 Z M292.7,109.9 L288.4,109.9 L288.4,112.1 L292.3,112.1 L292.3,113.9 L288.4,113.9 L288.4,118.2 L286.4,118.2 L286.4,108.2 L292.7,108.2 L292.7,109.9 Z M294.2,114.5 L294.2,108.2 L296.2,108.2 L296.2,115.0 Q296.2,115.8 296.6,116.2 Q297.0,116.6 297.6,116.6 Q298.3,116.6 298.7,116.2 Q299.1,115.8 299.1,115.0 L299.1,108.2 L301.1,108.2 L301.1,114.5 Q301.1,116.6 300.3,117.5 Q299.5,118.4 297.6,118.4 Q295.8,118.4 295.0,117.5 Q294.2,116.6 294.2,114.5 Z M303.3,118.2 L303.3,108.2 L305.3,108.2 L305.3,116.5 L309.6,116.5 L309.6,118.2 L303.3,118.2 Z M311.6,118.2 L311.6,108.2 L313.6,108.2 L313.6,116.5 L317.9,116.5 L317.9,118.2 L311.6,118.2 Z M318.5,108.2 L320.6,108.2 L322.6,112.2 L324.5,108.2 L326.7,108.2 L323.6,114.3 L323.6,118.2 L321.6,118.2 L321.6,114.3 L318.5,108.2 Z M336.5,118.2 L336.5,108.2 L338.5,108.2 L338.5,116.5 L342.8,116.5 L342.8,118.2 L336.5,118.2 Z M347.5,109.8 Q346.7,109.8 346.4,110.6 Q346.0,111.4 346.0,113.2 Q346.0,115.0 346.4,115.8 Q346.7,116.6 347.5,116.6 Q348.2,116.6 348.6,115.8 Q348.9,115.0 348.9,113.2 Q348.9,111.4 348.6,110.6 Q348.2,109.8 347.5,109.8 Z M344.0,113.2 Q344.0,110.6 344.8,109.3 Q345.7,108.0 347.5,108.0 Q349.2,108.0 350.1,109.3 Q351.0,110.6 351.0,113.2 Q351.0,115.8 350.1,117.1 Q349.2,118.4 347.5,118.4 Q345.7,118.4 344.8,117.1 Q344.0,115.8 344.0,113.2 Z M358.9,117.9 Q358.4,118.2 357.9,118.3 Q357.4,118.4 356.8,118.4 Q354.8,118.4 353.7,117.1 Q352.7,115.8 352.7,113.2 Q352.7,110.7 353.7,109.3 Q354.8,108.0 356.8,108.0 Q357.4,108.0 357.9,108.1 Q358.5,108.2 358.9,108.5 L358.9,110.7 Q358.4,110.2 357.9,110.0 Q357.4,109.8 356.9,109.8 Q355.8,109.8 355.3,110.7 Q354.7,111.5 354.7,113.2 Q354.7,114.9 355.3,115.8 Q355.8,116.6 356.9,116.6 Q357.4,116.6 357.9,116.4 Q358.4,116.2 358.9,115.7 L358.9,117.9 Z M364.1,110.0 L363.2,114.1 L365.0,114.1 L364.1,110.0 Z M362.9,108.2 L365.3,108.2 L368.0,118.2 L366.0,118.2 L365.4,115.8 L362.8,115.8 L362.2,118.2 L360.2,118.2 L362.9,108.2 Z M369.8,118.2 L369.8,108.2 L371.7,108.2 L371.7,116.5 L376.0,116.5 L376.0,118.2 L369.8,118.2 Z" fill="#5b6470"/>
</svg>
